<svg height="512pt" viewBox="0 -15 512 512" width="512pt" xmlns="http://www.w3.org/2000/svg"><path d="m263.800781 4.5-7.800781-4.5-7.800781 4.5c-3.898438 2.402344-97.199219 59.101562-97.199219 132.898438 0 73.800781 93.300781 130.5 97.199219 132.902343l7.800781 4.5 7.800781-4.5c3.898438-2.402343 97.199219-59.101562 97.199219-132.902343 0-73.800782-93.300781-130.496094-97.199219-132.898438zm0 0" fill="#daf569"/><path d="m361 137.398438c0 73.800781-93.300781 130.5-97.199219 132.902343l-7.800781 4.5v-274.800781l7.800781 4.5c3.898438 2.402344 97.199219 59.101562 97.199219 132.898438zm0 0" fill="#b9df47"/><path d="m497 62.398438c-.003906 0-.003906 0-.003906 0-24.855469.003906-44.996094 20.148437-44.996094 45v137.230468l-77.796875 108.910156-24.40625-17.433593 69.800781-97.722657c-12.226562-8.132812-26.832031-12.199218-41.71875-11.039062-19.394531 1.375-37.222656 11.070312-48.867187 26.628906l-57.011719 76.011719v152.414063h150v-40.839844l90-150v-229.160156zm0 0" fill="#fcced3"/><path d="m182.988281 253.972656c-11.644531-15.558594-29.472656-25.253906-48.867187-26.628906-14.953125-1.183594-29.523438 2.890625-41.726563 11.027344l-2.394531-3.355469 72.203125 101.089844-24.40625 17.433593-77.796875-108.910156v-137.230468c0-24.847657-20.144531-44.996094-44.996094-45h-.003906-15v229.160156l90 150v40.839844h150v-152.414063zm0 0" fill="#fde4e4"/><path d="m311.5 132.898438-40.5 40.800781v128.699219h-30v-128.699219l-40.5-40.800781 21-20.996094 19.5 19.199218v-53.703124h30v53.703124l19.5-19.199218zm0 0" fill="#b9df47"/><path d="m311.5 132.898438-40.5 40.800781v128.699219h-15v-225h15v53.703124l19.5-19.199218zm0 0" fill="#96cc29"/></svg>