<svg height="512pt" viewBox="0 -15 512 512" width="512pt" xmlns="http://www.w3.org/2000/svg"><path d="m278.5 27.898438c-4.199219-5.097657-7.800781-9.597657-10.800781-13.199219l-11.699219-14.699219-11.699219 14.699219c-3 3.601562-6.601562 8.101562-10.800781 13.199219-35.699219 42.601562-67.5 91-67.5 123.101562 0 49.5 40.5 90 90 90s90-40.5 90-90c0-32.101562-31.800781-80.5-67.5-123.101562zm0 0" fill="#b3f2e7"/><path d="m451 136v107.226562l-77.796875 108.910157-24.40625-17.429688 69.804687-97.734375c-12.195312-8.125-26.761718-12.1875-41.722656-11.03125-19.394531 1.375-37.222656 11.074219-48.867187 26.628906l-57.011719 76.011719v153.417969h150v-41.839844l91-150v-199.160156h-15c-24.851562 0-46 20.148438-46 45zm0 0" fill="#fcced3"/><path d="m61 136v107.226562l77.796875 108.910157 24.40625-17.429688-69.804687-97.734375c12.195312-8.125 26.761718-12.1875 41.722656-11.03125 19.394531 1.375 37.222656 11.074219 48.867187 26.628906l57.011719 76.011719v153.417969h-150v-41.839844l-91-150v-199.160156h15c24.851562 0 46 20.148438 46 45zm0 0" fill="#fde4e4"/><path d="m346 151c0 49.5-40.5 90-90 90v-241l11.699219 14.699219c3 3.601562 6.601562 8.101562 10.800781 13.199219 35.699219 42.601562 67.5 91 67.5 123.101562zm0 0" fill="#73e6d3"/></svg>