<svg height="512pt" viewBox="0 -31 512 512" width="512pt" xmlns="http://www.w3.org/2000/svg"><path d="m302 135h30v60.597656h-30zm0 0" fill="#b9df47"/><path d="m317 135h15v60.597656h-15zm0 0" fill="#96cc29"/><path d="m452 315-77.402344 75h-169.796875c-14.398437-21.601562-22.800781-47.101562-22.800781-75 0-74.699219 60.300781-135 135-135s135 60.300781 135 135zm0 0" fill="#766e6e"/><path d="m452 315-77.402344 75h-57.597656v-210c74.699219 0 135 60.300781 135 135zm0 0" fill="#5b5555"/><path d="m482 0v15c0 74.398438-60.601562 135-135 135h-60c-57.898438 0-105-47.101562-105-105v-15h45c49.5 0 67.199219 27 90 44.398438 21.898438-44.097657 67.5-74.398438 120-74.398438zm0 0" fill="#daf569"/><path d="m482 0v15c0 74.398438-60.601562 135-135 135h-30v-75.601562c21.898438-44.097657 67.5-74.398438 120-74.398438zm0 0" fill="#b9df47"/><path d="m0 270h122v150h-122zm0 0" fill="#73e6d3"/><path d="m512 318.300781-165 123.597657-10.800781 8.101562-19.199219-2.402344-226-27.597656v-150c42-23.402344 55-36.300781 91.601562-36 24.597657 0 49.199219 8.699219 68.699219 26.101562l7.199219 6.300782c2.699219 2.398437 6.300781 3.597656 9.902344 3.597656h93.597656v15c0 13.199219-5.699219 25.199219-15 33.300781-7.800781 7.199219-18.300781 11.699219-30 11.699219h-105v30h132.597656l2.402344-1.5 95.699219-63c20.101562-13.199219 47.402343-8.101562 61.5 11.699219zm0 0" fill="#fde4e4"/><g fill="#fcced3"><path d="m347 318.300781c-7.800781 7.199219-18.300781 11.699219-30 11.699219v-60h45v15c0 13.199219-5.699219 25.199219-15 33.300781zm0 0"/><path d="m512 318.300781-165 123.597657-10.800781 8.101562-19.199219-2.402344v-87.597656h27.597656l2.402344-1.5 95.699219-63c20.101562-13.199219 47.402343-8.101562 61.5 11.699219zm0 0"/></g></svg>